<svg width="100" height="100" viewBox="0 0 100 100" fill="none" xmlns="http://www.w3.org/2000/svg">
<path fill-rule="evenodd" clip-rule="evenodd" d="M31.1895 26.0047C28.3808 26.622 25.4923 28.2518 22.6934 31.0507C16.1847 37.5595 16.1847 48.1122 22.6934 54.6208C26.7614 58.6888 33.8744 65.8018 39.9703 71.8979L51.1443 83.072L51.145 83.0727C51.145 83.0727 51.145 83.0727 51.1449 83.0729C51.145 83.0729 51.1451 83.0729 51.1452 83.0729C51.1452 83.0729 51.1452 83.0729 51.1452 83.0729L79.5968 54.6209C86.1055 48.1122 86.1055 37.5595 79.5968 31.0507C76.798 28.2519 73.9095 26.622 71.1008 26.0047C68.3371 25.3973 65.3717 25.7053 62.217 27.2446C59.5685 28.5369 56.3347 31.0749 54.8692 33.9951C54.1623 35.4037 52.7212 36.2929 51.1452 36.2929C49.5692 36.2929 48.1281 35.4037 47.4212 33.9951C45.9557 31.0749 42.7219 28.537 40.0733 27.2446C36.9186 25.7053 33.9532 25.3973 31.1895 26.0047ZM51.1443 83.0738C51.1443 83.0737 51.1442 83.0737 51.1442 83.0737C51.1437 83.0742 51.1429 83.075 51.1416 83.0763C51.1419 83.076 51.1429 83.0752 51.1443 83.0738ZM51.1416 83.0763C51.1214 83.0966 50.9859 83.2323 50.0775 84.1407L51.1421 83.076C51.1418 83.0761 51.1417 83.0762 51.1416 83.0763ZM29.4007 17.8656C34.1272 16.8268 39.0044 17.4506 43.7276 19.7553C45.9747 20.8517 48.7503 22.671 51.1452 25.1268C53.5401 22.6711 56.3156 20.8517 58.5626 19.7553C63.2858 17.4506 68.1631 16.8268 72.8896 17.8656C77.5711 18.8946 81.8203 21.489 85.4894 25.1582C95.2524 34.9213 95.2524 50.7504 85.4894 60.5134L57.0377 88.9655C53.7835 92.2197 48.5069 92.2198 45.2527 88.9655L48.1989 86.0192C45.2526 88.9655 45.2526 88.9654 45.2524 88.9652L45.2517 88.9645L34.0777 77.7904C27.9818 71.6943 20.8689 64.5813 16.8009 60.5134C7.03772 50.7504 7.03774 34.9213 16.8009 25.1582C20.47 21.489 24.7192 18.8946 29.4007 17.8656Z" fill="#CA1D47"/>
</svg>
