<svg width="30" height="30" viewBox="0 0 30 30" fill="none" xmlns="http://www.w3.org/2000/svg">
<path fill-rule="evenodd" clip-rule="evenodd" d="M9.5133 6.58759C8.67068 6.77279 7.80415 7.26173 6.96448 8.10141C5.01185 10.054 5.01185 13.2198 6.96447 15.1724C8.18487 16.3928 10.3188 18.5267 12.1475 20.3555L15.4997 23.7078L15.5 23.708C15.5 23.708 15.5 23.708 15.4999 23.708C15.5 23.708 15.5 23.708 15.5 23.708C15.5 23.708 15.5 23.708 15.5 23.708L24.0355 15.1724C25.9881 13.2199 25.9881 10.054 24.0355 8.1014C23.1958 7.26174 22.3293 6.77279 21.4867 6.58759C20.6576 6.40537 19.768 6.49776 18.8215 6.95956C18.027 7.34726 17.0569 8.10866 16.6172 8.98473C16.4051 9.40729 15.9728 9.67405 15.5 9.67405C15.0272 9.67405 14.5949 9.40729 14.3828 8.98473C13.9431 8.10866 12.973 7.34727 12.1784 6.95957C11.232 6.49777 10.3424 6.40537 9.5133 6.58759ZM15.4997 23.7083C15.4997 23.7083 15.4997 23.7083 15.4997 23.7083C15.4995 23.7084 15.4993 23.7087 15.4989 23.7091C15.499 23.709 15.4993 23.7087 15.4997 23.7083ZM15.4989 23.7091C15.4929 23.7152 15.4522 23.7559 15.1797 24.0284L15.4991 23.709C15.499 23.709 15.499 23.709 15.4989 23.7091ZM8.97664 4.14587C10.3946 3.83423 11.8578 4.02137 13.2747 4.71277C13.9489 5.04169 14.7815 5.58749 15.5 6.32424C16.2185 5.5875 17.0511 5.04169 17.7252 4.71277C19.1422 4.02137 20.6054 3.83423 22.0233 4.14587C23.4278 4.45455 24.7025 5.23289 25.8033 6.33365C28.7322 9.26257 28.7322 14.0113 25.8033 16.9402L17.2678 25.4758C16.2915 26.4521 14.7085 26.4521 13.7322 25.4758L14.6161 24.5919C13.7322 25.4758 13.7322 25.4758 13.7322 25.4758L13.732 25.4755L10.3798 22.1233C8.55098 20.2945 6.4171 18.1606 5.19671 16.9402C2.26776 14.0113 2.26777 9.26257 5.19671 6.33365C6.29745 5.23289 7.57222 4.45455 8.97664 4.14587Z" fill="#111111"/>
</svg>
